REM MD5 582de2b978d0eed4d68d34de1b5108de
FILE "Euro Demo 16 (Europe).bin" BINARY
  TRACK 01 MODE2/2352
    INDEX 01 00:00:00
  TRACK 02 AUDIO
    INDEX 00 13:40:69
    INDEX 01 13:42:69
  TRACK 03 AUDIO
    INDEX 00 19:32:14
    INDEX 01 19:34:14
  TRACK 04 AUDIO
    INDEX 00 23:24:07
    INDEX 01 23:26:07
REM LEADOUT 26:36:16
